# File created by Blade
# Date/Time:  Tue Apr 07 20:45:22 2015
# Frame Rate: 120.000 fps
#------------------------------------------------------
:FULLY-SPECIFIED
:DEGREES
903
root 2.700364 33.473597 -1.881214 11.446054 -2.180681 -9.489534
Spine -6.319651 1.097684 2.653806
Head 15.823156 -4.594492 0.635483
LeftShoulder -21.889451 36.974490 24.413521
LeftArm 56.686827 -61.599305 -56.389018
LeftForeArm 14.245520 -0.000000 7.862830
LeftHand 8.355480 -0.000000 14.318580
LeftHandThumb1 -26.253704 0.000000 33.147579
RightShoulder -5.899645 5.482937 -30.152385
RightArm 6.677617 26.416910 45.671162
RightForeArm -7.971881 -0.000000 12.714964
RightHand 9.037600 -0.000000 -15.139534
RightHandThumb1 -24.326973 -0.000000 -32.862282
LeftUpLeg -6.423693 -7.718465 8.359901
LeftLeg 4.293294 -0.000000 -0.000000
LeftFoot -3.584021 2.016039 -17.660324
LeftToeBase -17.637709 -0.000000 0.000000
RightUpLeg -10.122969 0.372362 9.078700
RightLeg 7.052452 -0.000000 -0.000000
RightFoot -4.182283 -8.599315 13.938597
RightToeBase 1.129535 -0.000000 -0.000000
904
root 2.681303 33.453319 -1.831029 11.338621 -1.873847 -9.092333
Spine -6.450924 0.898878 2.462176
Head 15.696791 -4.632692 0.422980
LeftShoulder -21.902080 37.005274 24.255485
LeftArm 56.628219 -61.399630 -56.258682
LeftForeArm 14.055673 -0.000000 7.907841
LeftHand 8.027114 -0.000000 14.907086
LeftHandThumb1 -26.253704 0.000000 33.147579
RightShoulder -6.026114 5.328000 -30.194823
RightArm 6.613301 26.106829 45.493215
RightForeArm -8.513472 -0.000000 12.218721
RightHand 9.241990 -0.000000 -15.044272
RightHandThumb1 -24.326973 -0.000000 -32.862282
LeftUpLeg -6.249848 -7.834830 8.003623
LeftLeg 4.150984 -0.000000 -0.000000
LeftFoot -3.538401 1.885644 -17.635621
LeftToeBase -17.658940 -0.000000 0.000000
RightUpLeg -9.819420 0.137037 8.778989
RightLeg 6.732722 -0.000000 -0.000000
RightFoot -4.111488 -9.127292 13.585225
RightToeBase -0.259012 -0.000000 0.000000
905
root 2.663509 33.433784 -1.784389 11.212055 -1.557756 -8.694718
Spine -6.535009 0.661924 2.285965
Head 15.545013 -4.677873 0.180910
LeftShoulder -21.888224 37.005568 24.168744
LeftArm 56.742195 -61.349333 -56.561019
LeftForeArm 14.283504 -0.000000 8.092801
LeftHand 7.996067 -0.000000 15.028549
LeftHandThumb1 -26.253704 0.000000 33.147579
RightShoulder -6.148117 5.197275 -30.287932
RightArm 6.573568 25.826883 45.385044
RightForeArm -9.084618 -0.000000 11.728645
RightHand 9.140841 -0.000000 -15.009429
RightHandThumb1 -24.326973 -0.000000 -32.862282
LeftUpLeg -6.077545 -7.830884 7.646853
LeftLeg 4.041029 -0.000000 -0.000000
LeftFoot -3.408479 1.557685 -17.614625
LeftToeBase -17.583555 -0.000000 0.000000
RightUpLeg -9.500185 -0.115512 8.443909
RightLeg 6.419897 -0.000000 -0.000000
RightFoot -3.970422 -9.194547 12.859598
RightToeBase -0.863700 -0.000000 0.000000
906
root 2.641350 33.416370 -1.740991 11.097516 -1.248694 -8.337765
Spine -6.615197 0.465626 2.136133
Head 15.379126 -4.682960 -0.031686
LeftShoulder -21.884781 36.942008 24.093296
LeftArm 56.745497 -61.215564 -56.648582
LeftForeArm 14.418791 -0.000000 8.173521
LeftHand 7.980804 0.000000 14.811758
LeftHandThumb1 -26.253704 0.000000 33.147579
RightShoulder -6.278835 5.076129 -30.360409
RightArm 6.502371 25.545964 45.224167
RightForeArm -9.621448 -0.000000 11.263708
RightHand 8.940516 -0.000000 -14.677062
RightHandThumb1 -24.326973 -0.000000 -32.862282
LeftUpLeg -5.883798 -7.874473 7.340840
LeftLeg 3.866746 -0.000000 -0.000000
LeftFoot -3.249597 1.294792 -17.776209
LeftToeBase -18.005774 -0.000000 0.000000
RightUpLeg -9.232934 -0.534502 8.154517
RightLeg 6.193471 -0.000000 -0.000000
RightFoot -3.658791 -8.942502 11.904424
RightToeBase -1.693782 -0.000000 0.000000
907
root 2.618297 33.400165 -1.697549 10.973331 -0.943753 -7.972654
Spine -6.676390 0.240038 1.964083
Head 15.213746 -4.726042 -0.214199
LeftShoulder -21.956407 36.965436 23.936226
LeftArm 56.766200 -61.082961 -56.622096
LeftForeArm 14.569117 0.000000 8.180883
LeftHand 8.059522 -0.000000 15.007272
LeftHandThumb1 -26.253704 0.000000 33.147579
RightShoulder -6.376314 4.965568 -30.448997
RightArm 6.415739 25.203261 45.099786
RightForeArm -9.886299 -0.000000 10.788238
RightHand 9.098763 0.000000 -14.951046
RightHandThumb1 -24.326973 -0.000000 -32.862282
LeftUpLeg -5.662766 -8.002894 7.029967
LeftLeg 3.664228 -0.000000 -0.000000
LeftFoot -3.135164 1.149846 -17.665751
LeftToeBase -18.129321 -0.000000 0.000000
RightUpLeg -8.968334 -1.002260 7.827893
RightLeg 6.007737 -0.000000 -0.000000
RightFoot -3.388504 -8.617976 11.114022
RightToeBase -2.497038 -0.000000 0.000000
908
root 2.596210 33.385274 -1.659975 10.867399 -0.680781 -7.588402
Spine -6.725183 0.067025 1.749549
Head 15.010118 -4.767150 -0.344839
LeftShoulder -22.015259 37.043038 23.759529
LeftArm 56.875333 -61.022687 -56.651457
LeftForeArm 14.666674 0.000000 8.127305
LeftHand 8.134980 -0.000000 15.176555
LeftHandThumb1 -26.253704 0.000000 33.147579
RightShoulder -6.537544 4.850945 -30.506395
RightArm 6.407848 24.801351 44.954084
RightForeArm -10.000554 0.000000 10.289491
RightHand 9.134784 -0.000000 -14.853349
RightHandThumb1 -24.326973 -0.000000 -32.862282
LeftUpLeg -5.470789 -8.191625 6.707857
LeftLeg 3.481290 -0.000000 -0.000000
LeftFoot -3.013458 1.039496 -17.585671
LeftToeBase -18.195561 -0.000000 0.000000
RightUpLeg -8.735507 -1.430788 7.447410
RightLeg 5.848131 -0.000000 -0.000000
RightFoot -3.259681 -8.256696 10.583658
RightToeBase -3.026819 -0.000000 0.000000
909
root 2.572045 33.371773 -1.626806 10.782372 -0.456134 -7.196171
Spine -6.782388 -0.084682 1.499553
Head 14.821961 -4.787863 -0.436382
LeftShoulder -21.978114 37.096756 23.700483
LeftArm 56.720994 -60.964555 -56.541601
LeftForeArm 14.695193 -0.000000 8.137033
LeftHand 8.083033 -0.000000 15.108989
LeftHandThumb1 -26.253704 0.000000 33.147579
RightShoulder -6.663749 4.772443 -30.566979
RightArm 6.346072 24.529280 44.827235
RightForeArm -10.268235 -0.000000 9.859755
RightHand 8.776773 -0.000000 -14.281541
RightHandThumb1 -24.326973 -0.000000 -32.862282
LeftUpLeg -5.281029 -8.472367 6.365272
LeftLeg 3.261575 -0.000000 -0.000000
LeftFoot -2.925834 1.141881 -17.474727
LeftToeBase -18.273422 -0.000000 0.000000
RightUpLeg -8.543317 -1.788683 7.038562
RightLeg 5.738510 -0.000000 -0.000000
RightFoot -3.126088 -7.760460 10.160550
RightToeBase -3.736887 -0.000000 0.000000
910
root 2.546613 33.358581 -1.593005 10.674820 -0.243655 -6.801016
Spine -6.813891 -0.244349 1.237402
Head 14.650400 -4.829103 -0.512839
LeftShoulder -22.000206 37.010579 23.627517
LeftArm 56.470777 -60.800715 -56.211080
LeftForeArm 14.772037 0.000000 8.028113
LeftHand 8.126721 -0.000000 15.263962
LeftHandThumb1 -26.253704 0.000000 33.147579
RightShoulder -6.780812 4.638678 -30.629672
RightArm 6.343559 24.271052 44.752714
RightForeArm -10.504220 -0.000000 9.430223
RightHand 8.845205 -0.000000 -14.221422
RightHandThumb1 -24.326973 -0.000000 -32.862282
LeftUpLeg -5.064225 -8.796278 6.014636
LeftLeg 3.047274 -0.000000 -0.000000
LeftFoot -2.866633 1.319368 -17.350264
LeftToeBase -18.322561 -0.000000 0.000000
RightUpLeg -8.334548 -2.100550 6.620164
RightLeg 5.663971 -0.000000 -0.000000
RightFoot -3.057525 -7.235999 9.839993
RightToeBase -4.296721 -0.000000 0.000000
911
root 2.521203 33.345920 -1.562056 10.600391 -0.029491 -6.404804
Spine -6.865082 -0.433696 0.974154
Head 14.471425 -4.812074 -0.587482
LeftShoulder -22.043800 37.017066 23.512585
LeftArm 56.371656 -60.735287 -56.031162
LeftForeArm 14.800186 -0.000000 7.890178
LeftHand 8.230308 -0.000000 15.168342
LeftHandThumb1 -26.253704 0.000000 33.147579
RightShoulder -6.876154 4.574883 -30.725860
RightArm 6.291487 24.082248 44.715396
RightForeArm -10.764103 -0.000000 9.026443
RightHand 8.911138 0.000000 -14.018130
RightHandThumb1 -24.326973 -0.000000 -32.862282
LeftUpLeg -4.876056 -9.181165 5.671018
LeftLeg 2.820839 -0.000000 -0.000000
LeftFoot -2.844361 1.580436 -17.408113
LeftToeBase -18.147584 -0.000000 0.000000
RightUpLeg -8.148829 -2.334546 6.190450
RightLeg 5.567823 -0.000000 -0.000000
RightFoot -3.072116 -6.817905 9.741002
RightToeBase -4.682463 -0.000000 0.000000
912
root 2.491038 33.333991 -1.533604 10.520554 0.170452 -6.076977
Spine -6.896662 -0.569282 0.775977
Head 14.281778 -4.832991 -0.665600
LeftShoulder -22.055462 37.081545 23.414125
LeftArm 56.397748 -60.715627 -56.014410
LeftForeArm 14.850810 -0.000000 7.756081
LeftHand 8.266695 -0.000000 15.346059
LeftHandThumb1 -26.253704 0.000000 33.147579
RightShoulder -7.018808 4.461036 -30.810791
RightArm 6.326930 23.941216 44.687985
RightForeArm -11.090814 -0.000000 8.632516
RightHand 8.912340 -0.000000 -13.832330
RightHandThumb1 -24.326973 -0.000000 -32.862282
LeftUpLeg -4.682764 -9.379978 5.389813
LeftLeg 2.612480 -0.000000 -0.000000
LeftFoot -2.858700 1.721518 -17.564689
LeftToeBase -17.904343 -0.000000 0.000000
RightUpLeg -7.976383 -2.461000 5.852675
RightLeg 5.501433 -0.000000 -0.000000
RightFoot -3.015402 -6.646979 9.416082
RightToeBase -5.337111 -0.000000 0.000000
913
root 2.453182 33.321680 -1.504435 10.437867 0.356959 -5.829482
Spine -6.926108 -0.711821 0.644385
Head 14.126710 -4.814277 -0.715429
LeftShoulder -22.071397 37.171715 23.335607
LeftArm 56.411728 -60.715242 -56.018012
LeftForeArm 14.893910 0.000000 7.652278
LeftHand 8.198423 -0.000000 15.442096
LeftHandThumb1 -26.253704 0.000000 33.147579
RightShoulder -7.116537 4.399728 -30.906952
RightArm 6.308538 23.806976 44.643659
RightForeArm -11.490314 0.000000 8.247690
RightHand 8.889036 -0.000000 -13.558503
RightHandThumb1 -24.326973 -0.000000 -32.862282
LeftUpLeg -4.486018 -9.253468 5.189511
LeftLeg 2.430259 -0.000000 -0.000000
LeftFoot -2.839617 1.533182 -17.644939
LeftToeBase -17.637470 -0.000000 0.000000
RightUpLeg -7.753443 -2.398251 5.595707
RightLeg 5.346265 -0.000000 -0.000000
RightFoot -2.982509 -6.604900 9.281377
RightToeBase -5.737095 -0.000000 0.000000
914
root 2.410922 33.310228 -1.474168 10.340320 0.533246 -5.652215
Spine -6.932075 -0.859576 0.581879
Head 13.956837 -4.746802 -0.752592
LeftShoulder -22.158290 37.245670 23.228459
LeftArm 56.482371 -60.668125 -56.005184
LeftForeArm 14.858701 0.000000 7.441948
LeftHand 8.269621 0.000000 15.277035
LeftHandThumb1 -26.253704 0.000000 33.147579
RightShoulder -7.213976 4.256909 -30.986480
RightArm 6.413348 23.659885 44.629227
RightForeArm -11.827910 0.000000 7.809371
RightHand 8.922617 -0.000000 -13.564093
RightHandThumb1 -24.326973 -0.000000 -32.862282
LeftUpLeg -4.270581 -8.910689 5.081601
LeftLeg 2.255590 -0.000000 -0.000000
LeftFoot -2.740765 1.007959 -17.848586
LeftToeBase -17.374563 -0.000000 0.000000
RightUpLeg -7.507233 -2.304655 5.444359
RightLeg 5.154658 -0.000000 -0.000000
RightFoot -2.962572 -6.724088 9.189600
RightToeBase -5.939665 -0.000000 0.000000
